<?xml version="1.0" encoding="UTF-8" standalone="no"?>
<svg
   viewBox="0 0 35.10516 6.039474"
   width="70.21032"
   height="12.078948"
   version="1.1"
   id="svg18"
   sodipodi:docname="career-tracker.svg"
   xml:space="preserve"
   inkscape:version="1.3-dev (77bc73e, 2022-05-18)"
   xmlns:inkscape="http://www.inkscape.org/namespaces/inkscape"
   xmlns:sodipodi="http://sodipodi.sourceforge.net/DTD/sodipodi-0.dtd"
   xmlns="http://www.w3.org/2000/svg"
   xmlns:svg="http://www.w3.org/2000/svg"><defs
     id="defs18" /><sodipodi:namedview
     id="namedview18"
     pagecolor="#ffffff"
     bordercolor="#000000"
     borderopacity="0.25"
     inkscape:showpageshadow="2"
     inkscape:pageopacity="0.0"
     inkscape:pagecheckerboard="0"
     inkscape:deskcolor="#d1d1d1"
     showgrid="false"
     inkscape:zoom="5.008673"
     inkscape:cx="48.416017"
     inkscape:cy="12.378528"
     inkscape:window-width="1440"
     inkscape:window-height="900"
     inkscape:window-x="0"
     inkscape:window-y="0"
     inkscape:window-maximized="0"
     inkscape:current-layer="svg18" /><linearGradient
     id="kwLqkX022bc80Ijdm5EKta"
     x1="4.382"
     x2="33.549999"
     y1="27.605"
     y2="27.605"
     gradientUnits="userSpaceOnUse"><stop
       offset="0"
       stop-color="#0176d0"
       id="stop1" /><stop
       offset="1"
       stop-color="#16538c"
       id="stop2" /></linearGradient><linearGradient
     id="kwLqkX022bc80Ijdm5EKtb"
     x1="5.8709998"
     x2="39.518002"
     y1="24.082001"
     y2="24.082001"
     gradientUnits="userSpaceOnUse"><stop
       offset="0"
       stop-color="#33bef0"
       id="stop3" /><stop
       offset="1"
       stop-color="#22a5e2"
       id="stop4" /></linearGradient><linearGradient
     id="kwLqkX022bc80Ijdm5EKtc"
     x1="13.061"
     x2="46.620998"
     y1="24.892"
     y2="30.809"
     gradientUnits="userSpaceOnUse"><stop
       offset="0"
       stop-color="#fcfcfc"
       id="stop5" /><stop
       offset="1"
       stop-color="#c3c9cd"
       id="stop6" /></linearGradient><linearGradient
     id="kwLqkX022bc80Ijdm5EKtd"
     x1="27.157"
     x2="27.157"
     y1="38.576"
     y2="31.787001"
     gradientTransform="rotate(-8.66,78.977,27.22)"
     gradientUnits="userSpaceOnUse"><stop
       offset="0"
       stop-color="#f0f0f0"
       id="stop7" /><stop
       offset="1"
       stop-color="#bbc1c4"
       id="stop8" /></linearGradient><linearGradient
     id="kwLqkX022bc80Ijdm5EKte"
     x1="42.483002"
     x2="27.747999"
     y1="14.385"
     y2="28.855"
     gradientUnits="userSpaceOnUse"><stop
       offset="0"
       stop-color="#4c4c4c"
       id="stop14" /><stop
       offset="1"
       stop-color="#343434"
       id="stop15" /></linearGradient><linearGradient
     id="kwLqkX022bc80Ijdm5EKtf"
     x1="40.626999"
     x2="25.892"
     y1="12.495"
     y2="26.965"
     gradientUnits="userSpaceOnUse"><stop
       offset="0"
       stop-color="#4c4c4c"
       id="stop16" /><stop
       offset="1"
       stop-color="#343434"
       id="stop17" /></linearGradient><g
     id="g44"
     transform="translate(-7.4979866,-22.286367)"><g
       id="g19"
       transform="matrix(0.14774011,0,0,0.14774011,7.5458282,22.725129)"><g
         id="g18"
         transform="translate(-4.705974,-7.0296313)"><path
           fill="url(#kwLqkX022bc80Ijdm5EKta)"
           d="m 5.871,10.27 c -1.068,0.283 -1.704,1.378 -1.422,2.445 l 4.589,17.332 c 0.171,0.646 0.008,1.336 -0.435,1.837 l -0.97,1.097 c -0.443,0.501 -0.606,1.19 -0.435,1.837 l 2.286,8.632 c 0.283,1.068 1.378,1.704 2.445,1.422 l 2.9,-0.768 18.721,-23.06 z"
           id="path2"
           style="fill:url(#kwLqkX022bc80Ijdm5EKta)" /><path
           fill="url(#kwLqkX022bc80Ijdm5EKtb)"
           d="M 38.029,37.962 14.828,44.105 5.871,10.27 29.072,4.127 c 1.068,-0.283 2.163,0.354 2.445,1.421 l 7.934,29.967 c 0.283,1.069 -0.354,2.164 -1.422,2.447 z"
           id="path4"
           style="fill:url(#kwLqkX022bc80Ijdm5EKtb)" /><path
           fill="url(#kwLqkX022bc80Ijdm5EKtc)"
           d="m 37.847,11.639 3.61,23.727 c 0.165,1.087 -0.589,2.113 -1.676,2.278 v 0 l 0.301,1.977 c 0.166,1.092 -0.584,2.112 -1.676,2.278 L 19.128,44.832 C 17.763,45.04 16.488,44.101 16.28,42.736 L 12.144,15.549 c -0.165,-1.087 0.589,-2.113 1.676,-2.278 L 35.57,9.962 c 1.087,-0.165 2.112,0.589 2.277,1.677 z"
           id="path6"
           style="fill:url(#kwLqkX022bc80Ijdm5EKtc)" /><path
           fill="url(#kwLqkX022bc80Ijdm5EKtd)"
           d="m 39.781,37.644 0.301,1.977 c 0.083,0.546 -0.292,1.056 -0.838,1.139 l -20.267,3.083 c -0.819,0.125 -1.584,-0.438 -1.709,-1.257 v 0 c -0.125,-0.819 0.438,-1.584 1.257,-1.709 z"
           id="path8"
           style="fill:url(#kwLqkX022bc80Ijdm5EKtd)" /><path
           fill="#2eb7ec"
           d="m 20.147,25.452 c -0.242,0 -0.456,-0.177 -0.493,-0.425 -0.042,-0.273 0.146,-0.528 0.419,-0.569 l 12.852,-1.956 c 0.27,-0.041 0.528,0.146 0.569,0.419 0.042,0.273 -0.146,0.528 -0.419,0.569 l -12.852,1.956 c -0.025,0.004 -0.05,0.006 -0.076,0.006 z"
           id="path9" /><path
           fill="#2eb7ec"
           d="m 19.546,21.498 c -0.242,0 -0.456,-0.177 -0.493,-0.425 -0.042,-0.273 0.146,-0.528 0.419,-0.569 l 12.852,-1.955 c 0.269,-0.038 0.528,0.146 0.569,0.419 0.042,0.273 -0.146,0.528 -0.419,0.569 l -12.852,1.955 c -0.025,0.004 -0.051,0.006 -0.076,0.006 z"
           id="path10" /><path
           fill="#2eb7ec"
           d="m 20.749,29.407 c -0.242,0 -0.456,-0.177 -0.493,-0.425 -0.042,-0.273 0.146,-0.528 0.419,-0.569 l 12.853,-1.956 c 0.269,-0.038 0.528,0.146 0.569,0.419 0.042,0.273 -0.146,0.528 -0.419,0.569 l -12.853,1.956 c -0.025,0.004 -0.051,0.006 -0.076,0.006 z"
           id="path11" /><path
           fill="#2eb7ec"
           d="m 21.501,34.35 c -0.242,0 -0.456,-0.177 -0.493,-0.425 -0.042,-0.273 0.146,-0.528 0.419,-0.569 l 1.061,-0.161 c 0.477,-0.073 0.914,-0.311 1.231,-0.67 l 0.243,-0.274 c 0.55,-0.621 1.309,-0.986 2.138,-1.027 0.84,-0.038 1.62,0.246 2.229,0.808 l 0.434,0.398 c 0.463,0.428 1.09,0.617 1.707,0.523 0.622,-0.095 1.16,-0.461 1.476,-1.007 0.14,-0.24 0.444,-0.32 0.683,-0.183 0.239,0.138 0.321,0.444 0.183,0.683 -0.468,0.81 -1.267,1.355 -2.19,1.496 -0.922,0.139 -1.849,-0.143 -2.535,-0.776 l -0.434,-0.398 c -0.409,-0.38 -0.948,-0.574 -1.501,-0.544 -0.558,0.028 -1.069,0.273 -1.439,0.691 l -0.242,0.273 c -0.473,0.535 -1.123,0.889 -1.83,0.996 l -1.061,0.161 c -0.028,0.003 -0.054,0.005 -0.079,0.005 z"
           id="path12" /><path
           d="m 12.14,15.55 c -0.16,-1.09 0.59,-2.11 1.68,-2.28 L 32.8,10.38 32.67,9.9 32.54,9.41 13.67,12.28 c -1.64,0.25 -2.76,1.78 -2.52,3.42 l 4.14,27.19 c 0.05,0.36 0.16,0.69 0.32,1 l 1,-0.26 c -0.17,-0.26 -0.28,-0.56 -0.33,-0.89 z"
           opacity="0.05"
           id="path13" /><path
           d="m 12.14,15.55 c -0.16,-1.09 0.59,-2.11 1.68,-2.28 L 32.8,10.38 32.67,9.9 13.74,12.78 c -1.36,0.2 -2.3,1.48 -2.09,2.84 l 4.13,27.19 c 0.06,0.34 0.17,0.66 0.33,0.95 l 0.5,-0.13 c -0.17,-0.26 -0.28,-0.56 -0.33,-0.89 z"
           opacity="0.07"
           id="path14" /><path
           fill="url(#kwLqkX022bc80Ijdm5EKte)"
           d="m 39.654,20.358 c -2.907,7.471 -6.307,13.122 -7.594,12.621 -1.287,-0.501 0.027,-6.963 2.934,-14.435 2.907,-7.472 6.307,-13.122 7.594,-12.621 1.287,0.501 -0.026,6.963 -2.934,14.435 z"
           id="path15"
           style="fill:url(#kwLqkX022bc80Ijdm5EKte)" /><path
           fill="url(#kwLqkX022bc80Ijdm5EKtf)"
           d="m 41.126,17.953 c -0.327,0.839 -1.731,0.746 -3.275,0.145 -1.544,-0.601 -2.643,-1.481 -2.316,-2.321 2.47,-6.347 5.803,-11.21 7.348,-10.61 1.543,0.602 0.713,6.439 -1.757,12.786 z"
           id="path17"
           style="fill:url(#kwLqkX022bc80Ijdm5EKtf)" /><path
           fill="#d4d4d4"
           d="m 39.9,18.56 c -0.57,0 -1.3,-0.17 -2.05,-0.46 -0.96,-0.38 -1.75,-0.86 -2.13,-1.38 -0.14,0.34 -0.28,0.68 -0.42,1.03 0.45,0.43 1.15,0.87 2.19,1.28 0.62,0.24 1.55,0.53 2.41,0.53 h 0.05 c 0.14,-0.35 0.27,-0.7 0.38,-1.04 -0.13,0.03 -0.28,0.04 -0.43,0.04 z"
           id="path18" /></g></g><g
       id="g43"
       transform="translate(0,0.03169895)"><g
         aria-label="Career"
         id="text19"
         style="font-weight:900;font-size:4.15129px;font-family:Avenir;-inkscape-font-specification:'Avenir, Heavy';fill:#4a4a4a;stroke-width:0.976635;stroke-linejoin:round;paint-order:markers fill stroke"><path
           d="m 16.758485,24.565665 q -0.161901,-0.174354 -0.315498,-0.232472 -0.149447,-0.05812 -0.303045,-0.05812 -0.228321,0 -0.415129,0.08303 -0.182656,0.07887 -0.315498,0.224169 -0.132841,0.141144 -0.207564,0.332103 -0.07057,0.19096 -0.07057,0.410978 0,0.236624 0.07057,0.435886 0.07472,0.199262 0.207564,0.344557 0.132842,0.145295 0.315498,0.228321 0.186808,0.08302 0.415129,0.08302 0.178506,0 0.344558,-0.08302 0.170202,-0.08718 0.315498,-0.273985 l 0.431734,0.307195 q -0.199262,0.273985 -0.485701,0.398524 -0.286439,0.124539 -0.61024,0.124539 -0.340406,0 -0.626845,-0.107934 -0.282287,-0.112085 -0.489852,-0.311347 -0.203413,-0.203413 -0.319649,-0.485701 -0.116236,-0.282287 -0.116236,-0.626844 0,-0.35286 0.116236,-0.639299 0.116236,-0.29059 0.319649,-0.494004 0.207565,-0.203413 0.489852,-0.311346 0.286439,-0.112085 0.626845,-0.112085 0.298893,0 0.552122,0.107933 0.25738,0.103783 0.477398,0.357011 z"
           id="path31" /><path
           d="m 18.784312,26.541679 h -0.01245 q -0.107933,0.170203 -0.273985,0.249078 -0.166052,0.07472 -0.365313,0.07472 -0.136993,0 -0.269834,-0.03736 -0.12869,-0.03736 -0.232473,-0.112085 -0.09963,-0.07472 -0.1619,-0.186808 -0.06227,-0.112085 -0.06227,-0.261531 0,-0.1619 0.05812,-0.273985 0.05812,-0.116236 0.153598,-0.190959 0.09963,-0.07888 0.228321,-0.124539 0.128689,-0.04566 0.265682,-0.06642 0.141144,-0.02491 0.282288,-0.02906 0.141144,-0.0083 0.265682,-0.0083 h 0.124539 v -0.05397 q 0,-0.186808 -0.12869,-0.278137 -0.12869,-0.09548 -0.327952,-0.09548 -0.157749,0 -0.294741,0.05812 -0.136993,0.05397 -0.236624,0.149446 l -0.261531,-0.261531 q 0.166051,-0.170203 0.38607,-0.244926 0.224169,-0.07472 0.460793,-0.07472 0.211716,0 0.357011,0.04981 0.145295,0.04566 0.240775,0.120388 0.09548,0.07472 0.145295,0.174354 0.05397,0.09548 0.07472,0.19511 0.02491,0.09963 0.02906,0.195111 0.0042,0.09133 0.0042,0.1619 v 1.145756 h -0.448339 z m -0.02906,-0.618542 H 18.65147 q -0.103782,0 -0.232472,0.0083 -0.12869,0.0083 -0.244927,0.04151 -0.112084,0.02906 -0.190959,0.09133 -0.07887,0.05812 -0.07887,0.166051 0,0.07057 0.02906,0.120388 0.03321,0.04566 0.08302,0.07887 0.04982,0.03321 0.112085,0.04982 0.06227,0.01245 0.124539,0.01245 0.25738,0 0.377767,-0.120388 0.124539,-0.124538 0.124539,-0.336254 z"
           id="path32" /><path
           d="m 19.768163,24.823045 h 0.498155 v 0.315498 h 0.0083 q 0.08303,-0.174354 0.236624,-0.269834 0.153597,-0.09548 0.352859,-0.09548 0.04566,0 0.08718,0.0083 0.04566,0.0083 0.09133,0.02076 v 0.481549 q -0.06227,-0.0166 -0.124539,-0.02491 -0.05812,-0.01245 -0.116236,-0.01245 -0.174354,0 -0.282288,0.06642 -0.103782,0.06227 -0.1619,0.145295 -0.05397,0.08303 -0.07472,0.166052 -0.01661,0.08303 -0.01661,0.124539 v 1.066881 h -0.498155 z"
           id="path33" /><path
           d="m 21.706808,25.993709 q 0.02491,0.22417 0.174354,0.348708 0.149447,0.124539 0.361163,0.124539 0.186808,0 0.311346,-0.07472 0.12869,-0.07888 0.22417,-0.195111 l 0.357011,0.269834 q -0.174354,0.215867 -0.390221,0.307195 -0.215867,0.09133 -0.452491,0.09133 -0.22417,0 -0.423431,-0.07472 -0.199262,-0.07472 -0.344558,-0.211716 -0.145295,-0.136993 -0.232472,-0.327952 -0.08303,-0.195111 -0.08303,-0.431734 0,-0.236624 0.08303,-0.427583 0.08718,-0.195111 0.232472,-0.332103 0.145296,-0.136993 0.344558,-0.211716 0.199261,-0.07472 0.423431,-0.07472 0.207565,0 0.377768,0.07472 0.174354,0.07057 0.294741,0.207564 0.124539,0.136993 0.190959,0.340406 0.07057,0.199262 0.07057,0.460793 v 0.136993 z m 1.021218,-0.373616 q -0.0042,-0.220019 -0.136993,-0.344557 -0.132841,-0.12869 -0.369465,-0.12869 -0.224169,0 -0.357011,0.12869 -0.12869,0.12869 -0.157749,0.344557 z"
           id="path34" /><path
           d="m 24.089646,25.993709 q 0.02491,0.22417 0.174354,0.348708 0.149447,0.124539 0.361162,0.124539 0.186808,0 0.311347,-0.07472 0.12869,-0.07888 0.22417,-0.195111 l 0.357011,0.269834 q -0.174354,0.215867 -0.390222,0.307195 -0.215867,0.09133 -0.45249,0.09133 -0.22417,0 -0.423432,-0.07472 -0.199262,-0.07472 -0.344557,-0.211716 -0.145295,-0.136993 -0.232472,-0.327952 -0.08303,-0.195111 -0.08303,-0.431734 0,-0.236624 0.08303,-0.427583 0.08718,-0.195111 0.232472,-0.332103 0.145295,-0.136993 0.344557,-0.211716 0.199262,-0.07472 0.423432,-0.07472 0.207564,0 0.377767,0.07472 0.174354,0.07057 0.294742,0.207564 0.124539,0.136993 0.190959,0.340406 0.07057,0.199262 0.07057,0.460793 v 0.136993 z m 1.021217,-0.373616 q -0.0042,-0.220019 -0.136992,-0.344557 -0.132842,-0.12869 -0.369465,-0.12869 -0.22417,0 -0.357011,0.12869 -0.12869,0.12869 -0.157749,0.344557 z"
           id="path35" /><path
           d="m 26.07396,24.823045 h 0.498155 v 0.315498 h 0.0083 q 0.08303,-0.174354 0.236623,-0.269834 0.153598,-0.09548 0.35286,-0.09548 0.04566,0 0.08718,0.0083 0.04566,0.0083 0.09133,0.02076 v 0.481549 q -0.06227,-0.0166 -0.124538,-0.02491 -0.05812,-0.01245 -0.116236,-0.01245 -0.174355,0 -0.282288,0.06642 -0.103782,0.06227 -0.1619,0.145295 -0.05397,0.08303 -0.07472,0.166052 -0.0166,0.08303 -0.0166,0.124539 v 1.066881 H 26.07396 Z"
           id="path36" /></g><g
         aria-label="Tracker"
         id="text31"
         style="font-weight:900;font-size:4.15129px;font-family:Avenir;-inkscape-font-specification:'Avenir, Heavy';fill:#4a4a4a;stroke-width:0.976635;stroke-linejoin:round;paint-order:markers fill stroke"><path
           d="m 29.518306,24.330929 h -0.90083 v -0.473247 h 2.324722 v 0.473247 h -0.900829 v 2.465866 h -0.523063 z"
           id="path37" /><path
           d="m 30.87162,24.804176 h 0.498155 v 0.315498 h 0.0083 q 0.08303,-0.174354 0.236624,-0.269834 0.153598,-0.09548 0.35286,-0.09548 0.04566,0 0.08718,0.0083 0.04566,0.0083 0.09133,0.02076 v 0.48155 q -0.06227,-0.01661 -0.124539,-0.02491 -0.05812,-0.01245 -0.116236,-0.01245 -0.174354,0 -0.282287,0.06642 -0.103783,0.06227 -0.161901,0.145295 -0.05397,0.08303 -0.07472,0.166052 -0.0166,0.08303 -0.0166,0.124538 v 1.066882 H 30.87162 Z"
           id="path38" /><path
           d="m 33.731859,26.52281 h -0.01245 q -0.107934,0.170203 -0.273985,0.249077 -0.166052,0.07472 -0.365314,0.07472 -0.136993,0 -0.269834,-0.03736 -0.12869,-0.03736 -0.232472,-0.112085 -0.09963,-0.07472 -0.1619,-0.186808 -0.06227,-0.112085 -0.06227,-0.261531 0,-0.161901 0.05812,-0.273986 0.05812,-0.116236 0.153598,-0.190959 0.09963,-0.07887 0.228321,-0.124539 0.12869,-0.04566 0.265683,-0.06642 0.141143,-0.02491 0.282287,-0.02906 0.141144,-0.0083 0.265683,-0.0083 h 0.124539 v -0.05397 q 0,-0.186808 -0.12869,-0.278136 -0.12869,-0.09548 -0.327952,-0.09548 -0.157749,0 -0.294742,0.05812 -0.136993,0.05397 -0.236623,0.149447 L 32.48232,25.07401 q 0.166052,-0.170203 0.38607,-0.244927 0.22417,-0.07472 0.460793,-0.07472 0.211716,0 0.357011,0.04982 0.145295,0.04566 0.240775,0.120387 0.09548,0.07472 0.145295,0.174354 0.05397,0.09548 0.07472,0.195111 0.02491,0.09963 0.02906,0.195111 0.0042,0.09133 0.0042,0.1619 v 1.145756 h -0.448339 z m -0.02906,-0.618542 h -0.103782 q -0.103782,0 -0.232472,0.0083 -0.12869,0.0083 -0.244926,0.04151 -0.112085,0.02906 -0.190959,0.09133 -0.07888,0.05812 -0.07888,0.166052 0,0.07057 0.02906,0.120387 0.03321,0.04566 0.08303,0.07888 0.04982,0.03321 0.112085,0.04982 0.06227,0.01245 0.124538,0.01245 0.25738,0 0.377768,-0.120387 0.124538,-0.124539 0.124538,-0.336255 z"
           id="path39" /><path
           d="m 36.077332,25.401961 q -0.08718,-0.09133 -0.182657,-0.145295 -0.09548,-0.05397 -0.19511,-0.05397 -0.136993,0 -0.244927,0.04981 -0.107933,0.04982 -0.186808,0.132841 -0.07472,0.08303 -0.116236,0.19096 -0.03736,0.107933 -0.03736,0.224169 0,0.116236 0.03736,0.22417 0.04151,0.107934 0.116236,0.190959 0.07888,0.08303 0.186808,0.132842 0.107934,0.04982 0.244927,0.04982 0.116236,0 0.215867,-0.04566 0.09963,-0.04982 0.170203,-0.141144 l 0.332103,0.357011 q -0.07472,0.07472 -0.174354,0.12869 -0.09548,0.05397 -0.195111,0.08718 -0.09963,0.03321 -0.190959,0.04566 -0.09133,0.0166 -0.157749,0.0166 -0.22417,0 -0.423432,-0.07472 -0.199262,-0.07472 -0.344557,-0.211716 -0.145295,-0.136992 -0.232472,-0.327952 -0.08303,-0.19511 -0.08303,-0.431734 0,-0.236623 0.08303,-0.427583 0.08718,-0.19511 0.232472,-0.332103 0.145295,-0.136992 0.344557,-0.211716 0.199262,-0.07472 0.423432,-0.07472 0.190959,0 0.381918,0.07472 0.195111,0.07057 0.340406,0.228321 z"
           id="path40" /><path
           d="m 36.716624,23.65842 h 0.498155 v 1.971862 l 0.767989,-0.826106 h 0.639298 l -0.855165,0.904981 0.909132,1.087638 h -0.660055 l -0.792896,-1.017066 h -0.0083 v 1.017066 h -0.498155 z"
           id="path41" /><path
           d="m 39.344386,25.974839 q 0.02491,0.22417 0.174354,0.348709 0.149446,0.124539 0.361162,0.124539 0.186808,0 0.311347,-0.07472 0.12869,-0.07887 0.22417,-0.19511 l 0.357011,0.269834 q -0.174355,0.215867 -0.390222,0.307195 -0.215867,0.09133 -0.45249,0.09133 -0.22417,0 -0.423432,-0.07472 -0.199262,-0.07472 -0.344557,-0.211716 -0.145295,-0.136992 -0.232472,-0.327952 -0.08303,-0.19511 -0.08303,-0.431734 0,-0.236623 0.08303,-0.427583 0.08718,-0.19511 0.232472,-0.332103 0.145295,-0.136992 0.344557,-0.211716 0.199262,-0.07472 0.423432,-0.07472 0.207564,0 0.377767,0.07472 0.174354,0.07057 0.294742,0.207565 0.124538,0.136993 0.190959,0.340406 0.07057,0.199262 0.07057,0.460793 v 0.136992 z m 1.021217,-0.373616 q -0.0042,-0.220018 -0.136992,-0.344557 -0.132842,-0.12869 -0.369465,-0.12869 -0.22417,0 -0.357011,0.12869 -0.12869,0.12869 -0.157749,0.344557 z"
           id="path42" /><path
           d="m 41.3287,24.804176 h 0.498155 v 0.315498 h 0.0083 q 0.08302,-0.174354 0.236623,-0.269834 0.153598,-0.09548 0.35286,-0.09548 0.04566,0 0.08718,0.0083 0.04566,0.0083 0.09133,0.02076 v 0.48155 q -0.06227,-0.01661 -0.124539,-0.02491 -0.05812,-0.01245 -0.116236,-0.01245 -0.174354,0 -0.282287,0.06642 -0.103783,0.06227 -0.161901,0.145295 -0.05397,0.08303 -0.07472,0.166052 -0.0166,0.08303 -0.0166,0.124538 v 1.066882 H 41.3287 Z"
           id="path43" /></g></g></g></svg>
